<?xml version="1.0" encoding="utf-8"?>
<!-- Generator: Adobe Illustrator 23.0.1, SVG Export Plug-In . SVG Version: 6.00 Build 0)  -->
<svg version="1.1" id="Layer_1" xmlns="http://www.w3.org/2000/svg" xmlns:xlink="http://www.w3.org/1999/xlink" x="0px" y="0px"
	 viewBox="0 0 25.5 20.6" style="enable-background:new 0 0 25.5 20.6;" xml:space="preserve">
<style type="text/css">
	.st0{fill:#07AA4B;}
</style>
<image style="overflow:visible;" width="26" height="21" xlink:href="31FBA242.jpg"  transform="matrix(1 0 0 1 -101.8438 171.5564)">
</image>
<path id="Shape_13" class="st0" d="M12.4,5.6l-8,6.8v7.3c0,0.4,0.3,0.7,0.7,0.7c0,0,0,0,0,0l4.9,0c0.4,0,0.7-0.3,0.7-0.7
	c0,0,0,0,0,0l0,0v-4.3c0-0.4,0.3-0.7,0.7-0.7c0,0,0,0,0,0h2.8c0.4,0,0.7,0.3,0.7,0.7c0,0,0,0,0,0v4.3c0,0.4,0.3,0.7,0.7,0.7l0,0
	l4.9,0c0.4,0,0.7-0.3,0.7-0.7c0,0,0,0,0,0v-7.3l-8-6.8C12.9,5.4,12.6,5.4,12.4,5.6z M25.1,10.2l-3.6-3.1V0.9c0-0.3-0.2-0.5-0.5-0.5
	h-2.4c-0.3,0-0.5,0.2-0.5,0.5v3.2l-3.9-3.3c-0.8-0.7-1.9-0.7-2.6,0l-11,9.3c-0.2,0.2-0.3,0.5-0.1,0.8l0,0l1.1,1.4
	c0.2,0.2,0.5,0.3,0.7,0.1c0,0,0,0,0,0l0,0l10.2-8.7c0.2-0.2,0.5-0.2,0.7,0l10.2,8.7c0.2,0.2,0.5,0.2,0.7-0.1c0,0,0,0,0,0l1.1-1.4
	C25.3,10.7,25.3,10.4,25.1,10.2L25.1,10.2z"/>
</svg>
